<?xml version="1.0" standalone="no"?>
<!DOCTYPE svg PUBLIC "-//W3C//DTD SVG 1.1//EN" "http://www.w3.org/Graphics/SVG/1.1/DTD/svg11.dtd">
<!--Generator: Xara Designer (www.xara.com), SVG filter version: 4.0.0.1-->
<svg stroke-width="0.501" stroke-linejoin="bevel" fill-rule="evenodd" xmlns:xlink="http://www.w3.org/1999/xlink" xmlns="http://www.w3.org/2000/svg" version="1.1" overflow="visible" width="600pt" height="450pt" viewBox="0 0 600 450">
 <defs>
  <marker id="DefaultArrow2" markerUnits="strokeWidth" viewBox="0 0 1 1" markerWidth="1" markerHeight="1" overflow="visible" orient="auto">
   <!-- REF_ARROW_STRAIGHT (-2) -->
   <g transform="scale(0.0092592592)">
    <!-- 1/108 -->
    <path d="M -9 54 L -9 -54 L 117 0 z"/>
   </g>
  </marker>
  <marker id="DefaultArrow3" markerUnits="strokeWidth" viewBox="0 0 1 1" markerWidth="1" markerHeight="1" overflow="visible" orient="auto">
   <!-- REF_ARROW_ANGLED -->
   <g transform="scale(0.0092592592)">
    <path d="M -27 54 L -9 0 L -27 -54 L 135 0 z"/>
   </g>
  </marker>
  <marker id="DefaultArrow4" markerUnits="strokeWidth" viewBox="0 0 1 1" markerWidth="1" markerHeight="1" overflow="visible" orient="auto">
   <!-- REF_ARROW_ROUNDED -->
   <g transform="scale(0.0092592592)">
    <path d="M -9,0 L -9,-45 C -9,-51.708 2.808,-56.580 9,-54 L 117,-9 C 120.916,-7.369 126.000,-4.242 126,0 C 126,4.242 120.916,7.369 117,9 L 9,54 C 2.808,56.580 -9,51.708 -9,45 z"/>
   </g>
  </marker>
  <marker id="DefaultArrow5" markerUnits="strokeWidth" viewBox="0 0 1 1" markerWidth="1" markerHeight="1" overflow="visible" orient="auto">
   <!-- REF_ARROW_SPOT -->
   <g transform="scale(0.0092592592)">
    <path d="M -54, 0 C -54,29.807 -29.807,54 0,54 C 29.807,54 54,29.807 54,0 C 54,-29.807 29.807,-54 0,-54 C -29.807,-54 -54,-29.807 -54,0 z"/>
   </g>
  </marker>
  <marker id="DefaultArrow6" markerUnits="strokeWidth" viewBox="0 0 1 1" markerWidth="1" markerHeight="1" overflow="visible" orient="auto">
   <!-- REF_ARROW_DIAMOND -->
   <g transform="scale(0.0092592592)">
    <path d="M -63,0 L 0,63 L 63,0 L 0,-63 z"/>
   </g>
  </marker>
  <marker id="DefaultArrow7" markerUnits="strokeWidth" viewBox="0 0 1 1" markerWidth="1" markerHeight="1" overflow="visible" orient="auto">
   <!-- REF_ARROW_FEATHER -->
   <g transform="scale(0.0092592592)">
    <path d="M 18,-54 L 108,-54 L 63,0 L 108,54 L 18, 54 L -36,0 z"/>
   </g>
  </marker>
  <marker id="DefaultArrow8" markerUnits="strokeWidth" viewBox="0 0 1 1" markerWidth="1" markerHeight="1" overflow="visible" orient="auto">
   <!-- REF_ARROW_FEATHER2 -->
   <g transform="scale(0.0092592592)">
    <path d="M -36,0 L 18,-54 L 54,-54 L 18,-18 L 27,-18 L 63,-54 L 99,-54 L 63,-18 L 72,-18 L 108,-54 L 144,-54 L 90,0 L 144,54 L 108,54 L 72,18 L 63,18 L 99,54 L 63,54 L 27,18 L 18,18 L 54,54 L 18,54 z"/>
   </g>
  </marker>
  <marker id="DefaultArrow9" markerUnits="strokeWidth" viewBox="0 0 1 1" markerWidth="1" markerHeight="1" overflow="visible" orient="auto">
   <!-- REF_ARROW_HOLLOWDIAMOND -->
   <g transform="scale(0.0092592592)">
    <path d="M 0,45 L -45,0 L 0, -45 L 45, 0 z M 0, 63 L-63, 0 L 0, -63 L 63, 0 z"/>
   </g>
  </marker>
  <filter id="StainedFilter">
   <feBlend mode="multiply" in2="BackgroundImage" in="SourceGraphic" result="blend"/>
   <feComposite in="blend" in2="SourceAlpha" operator="in" result="comp"/>
  </filter>
  <filter id="BleachFilter">
   <feBlend mode="screen" in2="BackgroundImage" in="SourceGraphic" result="blend"/>
   <feComposite in="blend" in2="SourceAlpha" operator="in" result="comp"/>
  </filter>
  <filter id="InvertTransparencyBitmapFilter">
   <feComponentTransfer>
    <feFuncR type="gamma" amplitude="1.055" exponent=".416666666" offset="-0.055"/>
    <feFuncG type="gamma" amplitude="1.055" exponent=".416666666" offset="-0.055"/>
    <feFuncB type="gamma" amplitude="1.055" exponent=".416666666" offset="-0.055"/>
   </feComponentTransfer>
   <feComponentTransfer>
    <feFuncR type="linear" slope="-1" intercept="1"/>
    <feFuncG type="linear" slope="-1" intercept="1"/>
    <feFuncB type="linear" slope="-1" intercept="1"/>
    <feFuncA type="linear" slope="1" intercept="0"/>
   </feComponentTransfer>
   <feComponentTransfer>
    <feFuncR type="gamma" amplitude="1" exponent="2.4" offset="0"/>
    <feFuncG type="gamma" amplitude="1" exponent="2.4" offset="0"/>
    <feFuncB type="gamma" amplitude="1" exponent="2.4" offset="0"/>
   </feComponentTransfer>
  </filter>
 </defs>
 <g id="Document" fill="none" stroke="black" font-family="Times New Roman" font-size="16" transform="scale(1 -1)">
  <g id="Spread" transform="translate(0 -450)">
   <g id="Layer 1">
    <path d="M 181.008,213.929 L 181.008,199.562 L 175.835,199.562 L 175.835,237.963 L 187.171,237.963 C 189.6,237.963 191.713,237.682 193.507,237.119 C 195.303,236.556 196.79,235.757 197.968,234.721 C 199.148,233.685 200.027,232.434 200.608,230.969 C 201.189,229.504 201.479,227.87 201.479,226.066 C 201.479,224.279 201.166,222.645 200.541,221.162 C 199.916,219.681 199,218.404 197.795,217.332 C 196.588,216.26 195.093,215.424 193.306,214.826 C 191.52,214.228 189.475,213.929 187.171,213.929 L 181.008,213.929 Z M 181.008,218.049 L 187.171,218.049 C 188.653,218.049 189.962,218.246 191.095,218.639 C 192.23,219.031 193.181,219.582 193.949,220.288 C 194.718,220.994 195.298,221.838 195.691,222.822 C 196.084,223.804 196.28,224.887 196.28,226.066 C 196.28,228.514 195.525,230.427 194.017,231.803 C 192.507,233.179 190.225,233.868 187.171,233.868 L 181.008,233.868 L 181.008,218.049 Z" fill-rule="nonzero" stroke-linejoin="round" stroke-linecap="round" stroke="none" stroke-width="2.01" fill="#333333" marker-start="none" marker-end="none" stroke-miterlimit="79.8403193612775"/>
    <path d="M 225.887,199.56 L 223.77,199.56 C 223.305,199.56 222.93,199.63 222.644,199.774 C 222.359,199.917 222.172,200.221 222.082,200.684 L 221.545,203.203 C 220.831,202.56 220.134,201.985 219.455,201.475 C 218.778,200.967 218.062,200.538 217.313,200.189 C 216.562,199.841 215.762,199.578 214.913,199.398 C 214.065,199.22 213.123,199.131 212.087,199.131 C 211.033,199.131 210.047,199.279 209.126,199.574 C 208.206,199.869 207.407,200.313 206.728,200.905 C 206.049,201.497 205.509,202.245 205.107,203.15 C 204.705,204.055 204.504,205.127 204.504,206.364 C 204.504,207.439 204.799,208.475 205.388,209.469 C 205.977,210.464 206.929,211.347 208.242,212.117 C 209.555,212.889 211.274,213.52 213.4,214.013 C 215.526,214.506 218.125,214.753 221.197,214.753 L 221.197,216.885 C 221.197,219.008 220.747,220.614 219.844,221.703 C 218.942,222.791 217.607,223.335 215.839,223.335 C 214.677,223.335 213.699,223.188 212.904,222.893 C 212.11,222.598 211.422,222.266 210.841,221.899 C 210.261,221.533 209.761,221.202 209.341,220.908 C 208.921,220.612 208.505,220.465 208.094,220.465 C 207.773,220.465 207.492,220.55 207.251,220.72 C 207.01,220.889 206.817,221.1 206.674,221.35 L 205.817,222.877 C 207.318,224.327 208.934,225.408 210.667,226.123 C 212.4,226.838 214.32,227.195 216.428,227.195 C 217.947,227.195 219.295,226.944 220.475,226.445 C 221.653,225.944 222.644,225.247 223.448,224.354 C 224.253,223.46 224.86,222.379 225.271,221.11 C 225.681,219.841 225.887,218.447 225.887,216.929 L 225.887,199.56 Z M 213.508,202.48 C 214.347,202.48 215.115,202.565 215.812,202.734 C 216.508,202.904 217.165,203.145 217.781,203.458 C 218.398,203.772 218.987,204.15 219.549,204.597 C 220.113,205.044 220.662,205.554 221.197,206.125 L 221.197,211.731 C 219.001,211.73 217.133,211.591 215.598,211.312 C 214.061,211.034 212.811,210.669 211.845,210.22 C 210.881,209.771 210.18,209.24 209.743,208.629 C 209.305,208.017 209.087,207.334 209.087,206.579 C 209.087,205.86 209.202,205.24 209.435,204.718 C 209.667,204.197 209.979,203.77 210.372,203.437 C 210.766,203.104 211.229,202.862 211.766,202.709 C 212.301,202.556 212.883,202.48 213.508,202.48 Z" fill-rule="nonzero" stroke-linejoin="round" stroke-linecap="round" stroke="none" stroke-width="2.01" fill="#333333" marker-start="none" marker-end="none" stroke-miterlimit="79.8403193612775"/>
    <path d="M 248.654,222.241 C 248.439,221.848 248.108,221.653 247.662,221.653 C 247.394,221.653 247.09,221.752 246.751,221.948 C 246.411,222.144 245.997,222.363 245.505,222.605 C 245.014,222.845 244.429,223.07 243.75,223.275 C 243.071,223.482 242.267,223.585 241.338,223.584 C 240.534,223.585 239.811,223.482 239.168,223.275 C 238.525,223.07 237.976,222.788 237.52,222.431 C 237.064,222.074 236.716,221.658 236.475,221.184 C 236.234,220.711 236.113,220.197 236.113,219.642 C 236.113,218.945 236.315,218.364 236.716,217.899 C 237.118,217.434 237.65,217.033 238.311,216.692 C 238.972,216.354 239.722,216.054 240.561,215.795 C 241.401,215.536 242.263,215.259 243.147,214.963 C 244.031,214.668 244.894,214.342 245.733,213.985 C 246.573,213.628 247.323,213.181 247.984,212.645 C 248.645,212.108 249.176,211.451 249.578,210.673 C 249.98,209.895 250.181,208.962 250.181,207.871 C 250.181,206.62 249.958,205.462 249.511,204.399 C 249.065,203.337 248.404,202.415 247.528,201.637 C 246.652,200.86 245.581,200.248 244.312,199.801 C 243.044,199.354 241.579,199.131 239.918,199.131 C 238.025,199.131 236.309,199.434 234.774,200.041 C 233.237,200.647 231.933,201.426 230.861,202.376 L 231.987,204.234 C 232.13,204.471 232.299,204.654 232.495,204.781 C 232.692,204.908 232.951,204.972 233.273,204.972 C 233.594,204.972 233.935,204.847 234.291,204.597 C 234.648,204.347 235.082,204.07 235.591,203.765 C 236.1,203.461 236.716,203.184 237.439,202.935 C 238.163,202.684 239.069,202.559 240.159,202.559 C 241.089,202.559 241.901,202.679 242.597,202.921 C 243.294,203.162 243.874,203.488 244.339,203.899 C 244.804,204.31 245.148,204.783 245.371,205.32 C 245.595,205.855 245.706,206.428 245.706,207.035 C 245.706,207.786 245.505,208.407 245.103,208.899 C 244.701,209.391 244.17,209.81 243.509,210.16 C 242.848,210.507 242.093,210.812 241.244,211.07 C 240.396,211.33 239.53,211.602 238.646,211.889 C 237.761,212.174 236.895,212.5 236.046,212.867 C 235.198,213.233 234.443,213.694 233.782,214.248 C 233.121,214.802 232.589,215.486 232.187,216.298 C 231.786,217.112 231.585,218.099 231.585,219.26 C 231.585,220.297 231.8,221.293 232.228,222.25 C 232.657,223.206 233.282,224.047 234.104,224.77 C 234.926,225.494 235.935,226.07 237.131,226.499 C 238.329,226.928 239.695,227.143 241.231,227.143 C 243.017,227.143 244.62,226.861 246.041,226.299 C 247.461,225.735 248.69,224.962 249.726,223.979 L 248.654,222.241 Z" fill-rule="nonzero" stroke-linejoin="round" stroke-linecap="round" stroke="none" stroke-width="2.01" fill="#333333" marker-start="none" marker-end="none" stroke-miterlimit="79.8403193612775"/>
    <path d="M 271.916,222.241 C 271.702,221.848 271.371,221.653 270.924,221.653 C 270.657,221.653 270.353,221.752 270.014,221.948 C 269.674,222.144 269.259,222.363 268.767,222.605 C 268.277,222.845 267.692,223.07 267.012,223.275 C 266.333,223.482 265.53,223.585 264.6,223.584 C 263.797,223.585 263.074,223.482 262.431,223.275 C 261.788,223.07 261.238,222.788 260.783,222.431 C 260.327,222.074 259.979,221.658 259.738,221.184 C 259.496,220.711 259.376,220.197 259.376,219.642 C 259.376,218.945 259.577,218.364 259.979,217.899 C 260.381,217.434 260.912,217.033 261.573,216.692 C 262.234,216.354 262.984,216.054 263.824,215.795 C 264.663,215.536 265.526,215.259 266.409,214.963 C 267.294,214.668 268.156,214.342 268.996,213.985 C 269.835,213.628 270.585,213.181 271.246,212.645 C 271.907,212.108 272.439,211.451 272.841,210.673 C 273.242,209.895 273.444,208.962 273.444,207.871 C 273.444,206.62 273.221,205.462 272.774,204.399 C 272.327,203.337 271.666,202.415 270.791,201.637 C 269.915,200.86 268.843,200.248 267.575,199.801 C 266.306,199.354 264.842,199.131 263.181,199.131 C 261.287,199.131 259.572,199.434 258.037,200.041 C 256.5,200.647 255.196,201.426 254.124,202.376 L 255.25,204.234 C 255.392,204.471 255.562,204.654 255.758,204.781 C 255.954,204.908 256.214,204.972 256.536,204.972 C 256.857,204.972 257.197,204.847 257.554,204.597 C 257.911,204.347 258.345,204.07 258.853,203.765 C 259.363,203.461 259.979,203.184 260.702,202.935 C 261.426,202.684 262.332,202.559 263.422,202.559 C 264.351,202.559 265.164,202.679 265.86,202.921 C 266.557,203.162 267.137,203.488 267.602,203.899 C 268.066,204.31 268.41,204.783 268.634,205.32 C 268.857,205.855 268.969,206.428 268.969,207.035 C 268.969,207.786 268.767,208.407 268.366,208.899 C 267.964,209.391 267.432,209.81 266.771,210.16 C 266.11,210.507 265.355,210.812 264.507,211.07 C 263.658,211.33 262.793,211.602 261.908,211.889 C 261.024,212.174 260.157,212.5 259.309,212.867 C 258.46,213.233 257.705,213.694 257.044,214.248 C 256.383,214.802 255.852,215.486 255.45,216.298 C 255.048,217.112 254.848,218.099 254.848,219.26 C 254.848,220.297 255.062,221.293 255.491,222.25 C 255.92,223.206 256.545,224.047 257.367,224.77 C 258.188,225.494 259.197,226.07 260.394,226.499 C 261.591,226.928 262.957,227.143 264.494,227.143 C 266.279,227.143 267.883,226.861 269.304,226.299 C 270.724,225.735 271.952,224.962 272.988,223.979 L 271.916,222.241 Z" fill-rule="nonzero" stroke-linejoin="round" stroke-linecap="round" stroke="none" stroke-width="2.01" fill="#333333" marker-start="none" marker-end="none" stroke-miterlimit="79.8403193612775"/>
   </g>
   <g id="Layer 2">
    <path d="M 304.075,238.603 L 304.075,231.63 L 288.052,231.63 L 288.052,221.753 L 301.395,221.753 L 301.395,214.753 L 288.052,214.753 L 288.052,199.556 L 278.941,199.556 L 278.941,238.603 L 304.075,238.603 Z" fill-rule="nonzero" stroke-linejoin="round" stroke-linecap="round" stroke="none" stroke-width="2.01" fill="#333333" marker-start="none" marker-end="none" stroke-miterlimit="79.8403193612775"/>
    <path d="M 335.03,209.658 C 335.244,209.658 335.459,209.617 335.673,209.534 C 335.887,209.452 336.093,209.311 336.289,209.109 L 339.88,205.251 C 338.308,203.229 336.339,201.704 333.972,200.674 C 331.605,199.645 328.805,199.131 325.571,199.131 C 322.606,199.131 319.949,199.636 317.601,200.645 C 315.251,201.655 313.259,203.048 311.625,204.826 C 309.991,206.604 308.735,208.713 307.86,211.151 C 306.984,213.59 306.546,216.238 306.546,219.097 C 306.546,222.008 307.047,224.685 308.047,227.123 C 309.048,229.562 310.445,231.666 312.241,233.435 C 314.036,235.203 316.185,236.579 318.685,237.562 C 321.186,238.544 323.946,239.036 326.965,239.036 C 328.43,239.036 329.81,238.905 331.104,238.646 C 332.399,238.386 333.61,238.029 334.736,237.572 C 335.86,237.118 336.896,236.572 337.844,235.936 C 338.791,235.301 339.631,234.599 340.362,233.83 L 337.308,229.729 C 337.111,229.48 336.88,229.251 336.611,229.046 C 336.343,228.84 335.968,228.738 335.486,228.738 C 335.165,228.738 334.86,228.81 334.575,228.952 C 334.289,229.095 333.985,229.269 333.664,229.475 C 333.342,229.68 332.99,229.903 332.605,230.145 C 332.221,230.386 331.765,230.609 331.239,230.815 C 330.711,231.02 330.095,231.194 329.39,231.337 C 328.684,231.48 327.858,231.552 326.911,231.552 C 325.268,231.552 323.768,231.262 322.409,230.68 C 321.053,230.1 319.887,229.269 318.913,228.188 C 317.939,227.107 317.179,225.799 316.635,224.263 C 316.091,222.726 315.817,221.002 315.817,219.09 C 315.817,217.089 316.091,215.311 316.635,213.757 C 317.179,212.203 317.921,210.895 318.86,209.831 C 319.797,208.769 320.891,207.961 322.141,207.406 C 323.393,206.853 324.732,206.575 326.16,206.575 C 326.983,206.575 327.733,206.615 328.412,206.696 C 329.091,206.776 329.72,206.914 330.301,207.111 C 330.882,207.307 331.435,207.563 331.962,207.875 C 332.489,208.188 333.021,208.575 333.556,209.041 C 333.77,209.22 334.003,209.367 334.253,209.483 C 334.503,209.6 334.763,209.658 335.03,209.658 Z" fill-rule="nonzero" stroke-linejoin="round" stroke-linecap="round" stroke="none" stroke-width="2.01" fill="#333333" marker-start="none" marker-end="none" stroke-miterlimit="79.8403193612775"/>
    <path d="M 370.25,209.658 C 370.465,209.658 370.679,209.617 370.893,209.534 C 371.108,209.452 371.313,209.311 371.51,209.109 L 375.1,205.251 C 373.529,203.229 371.56,201.704 369.192,200.674 C 366.825,199.645 364.025,199.131 360.792,199.131 C 357.826,199.131 355.169,199.636 352.821,200.645 C 350.472,201.655 348.479,203.048 346.845,204.826 C 345.211,206.604 343.956,208.713 343.08,211.151 C 342.205,213.59 341.767,216.238 341.767,219.097 C 341.767,222.008 342.267,224.685 343.268,227.123 C 344.269,229.562 345.666,231.666 347.461,233.435 C 349.256,235.203 351.405,236.579 353.906,237.562 C 356.407,238.544 359.167,239.036 362.186,239.036 C 363.651,239.036 365.031,238.905 366.325,238.646 C 367.62,238.386 368.83,238.029 369.956,237.572 C 371.081,237.118 372.117,236.572 373.064,235.936 C 374.012,235.301 374.851,234.599 375.583,233.83 L 372.529,229.729 C 372.331,229.48 372.1,229.251 371.832,229.046 C 371.564,228.84 371.189,228.738 370.706,228.738 C 370.385,228.738 370.081,228.81 369.796,228.952 C 369.51,229.095 369.205,229.269 368.884,229.475 C 368.562,229.68 368.21,229.903 367.825,230.145 C 367.441,230.386 366.986,230.609 366.459,230.815 C 365.932,231.02 365.316,231.194 364.611,231.337 C 363.905,231.48 363.078,231.552 362.132,231.552 C 360.489,231.552 358.988,231.262 357.63,230.68 C 356.273,230.1 355.107,229.269 354.133,228.188 C 353.16,227.107 352.4,225.799 351.856,224.263 C 351.311,222.726 351.038,221.002 351.038,219.09 C 351.038,217.089 351.311,215.311 351.856,213.757 C 352.4,212.203 353.142,210.895 354.08,209.831 C 355.018,208.769 356.111,207.961 357.362,207.406 C 358.613,206.853 359.952,206.575 361.381,206.575 C 362.204,206.575 362.954,206.615 363.633,206.696 C 364.312,206.776 364.941,206.914 365.521,207.111 C 366.103,207.307 366.656,207.563 367.182,207.875 C 367.71,208.188 368.241,208.575 368.777,209.041 C 368.991,209.22 369.223,209.367 369.474,209.483 C 369.724,209.6 369.983,209.658 370.25,209.658 Z" fill-rule="nonzero" stroke-linejoin="round" stroke-linecap="round" stroke="none" stroke-width="2.01" fill="#333333" marker-start="none" marker-end="none" stroke-miterlimit="79.8403193612775"/>
   </g>
   <g id="Layer 3">
    <path d="M 404.346,237.975 L 404.346,233.737 L 385.911,233.737 L 385.911,220.98 L 400.835,220.98 L 400.835,216.912 L 385.911,216.912 L 385.911,203.801 L 404.346,203.801 L 404.346,199.562 L 380.686,199.562 L 380.686,237.975 L 404.346,237.975 Z" fill-rule="nonzero" stroke-linejoin="round" stroke-linecap="round" stroke="none" stroke-width="2.01" fill="#333333" marker-start="none" marker-end="none" stroke-miterlimit="79.8403193612775"/>
    <path d="M 417.425,213.256 L 408.289,226.711 L 412.87,226.711 C 413.263,226.711 413.549,226.647 413.728,226.519 C 413.906,226.391 414.067,226.209 414.21,225.97 L 420.855,215.551 C 421.016,216.062 421.248,216.574 421.552,217.087 L 427.393,225.861 C 427.572,226.118 427.75,226.323 427.93,226.478 C 428.108,226.632 428.331,226.711 428.599,226.711 L 432.993,226.711 L 423.856,213.519 L 433.369,199.562 L 428.786,199.562 C 428.393,199.562 428.085,199.664 427.862,199.867 C 427.638,200.068 427.456,200.292 427.312,200.538 L 420.48,211.013 C 420.354,210.504 420.167,210.047 419.918,209.641 L 413.594,200.538 C 413.415,200.292 413.223,200.068 413.018,199.867 C 412.812,199.664 412.531,199.562 412.173,199.562 L 407.912,199.562 L 417.425,213.256 Z" fill-rule="nonzero" stroke-linejoin="round" stroke-linecap="round" stroke="none" stroke-width="2.01" fill="#333333" marker-start="none" marker-end="none" stroke-miterlimit="79.8403193612775"/>
    <path d="M 458.015,199.56 L 455.898,199.56 C 455.434,199.56 455.059,199.63 454.773,199.774 C 454.488,199.917 454.3,200.221 454.21,200.684 L 453.674,203.203 C 452.96,202.56 452.263,201.985 451.584,201.475 C 450.906,200.967 450.191,200.538 449.441,200.189 C 448.69,199.841 447.89,199.578 447.042,199.398 C 446.193,199.22 445.251,199.131 444.215,199.131 C 443.161,199.131 442.175,199.279 441.255,199.574 C 440.334,199.869 439.536,200.313 438.857,200.905 C 438.178,201.497 437.637,202.245 437.235,203.15 C 436.834,204.055 436.632,205.127 436.632,206.364 C 436.632,207.439 436.927,208.475 437.517,209.469 C 438.106,210.464 439.057,211.347 440.37,212.117 C 441.684,212.889 443.403,213.52 445.528,214.013 C 447.654,214.506 450.254,214.753 453.326,214.753 L 453.326,216.885 C 453.326,219.008 452.875,220.614 451.973,221.703 C 451.07,222.791 449.735,223.335 447.967,223.335 C 446.806,223.335 445.827,223.188 445.033,222.893 C 444.238,222.598 443.55,222.266 442.97,221.899 C 442.39,221.533 441.889,221.202 441.469,220.908 C 441.049,220.612 440.634,220.465 440.223,220.465 C 439.902,220.465 439.621,220.55 439.379,220.72 C 439.138,220.889 438.945,221.1 438.803,221.35 L 437.945,222.877 C 439.446,224.327 441.062,225.408 442.795,226.123 C 444.528,226.838 446.449,227.195 448.557,227.195 C 450.075,227.195 451.423,226.944 452.603,226.445 C 453.781,225.944 454.773,225.247 455.576,224.354 C 456.381,223.46 456.988,222.379 457.399,221.11 C 457.81,219.841 458.015,218.447 458.015,216.929 L 458.015,199.56 Z M 445.636,202.48 C 446.476,202.48 447.243,202.565 447.941,202.734 C 448.636,202.904 449.294,203.145 449.91,203.458 C 450.526,203.772 451.115,204.15 451.677,204.597 C 452.241,205.044 452.79,205.554 453.326,206.125 L 453.326,211.731 C 451.129,211.73 449.261,211.591 447.726,211.312 C 446.19,211.034 444.939,210.669 443.974,210.22 C 443.01,209.771 442.309,209.24 441.871,208.629 C 441.433,208.017 441.215,207.334 441.215,206.579 C 441.215,205.86 441.331,205.24 441.563,204.718 C 441.795,204.197 442.107,203.77 442.5,203.437 C 442.894,203.104 443.358,202.862 443.894,202.709 C 444.43,202.556 445.011,202.48 445.636,202.48 Z" fill-rule="nonzero" stroke-linejoin="round" stroke-linecap="round" stroke="none" stroke-width="2.01" fill="#333333" marker-start="none" marker-end="none" stroke-miterlimit="79.8403193612775"/>
    <path d="M 465.24,199.562 L 465.24,226.711 L 468.081,226.711 C 468.76,226.711 469.189,226.349 469.367,225.625 L 469.715,222.569 C 470.715,223.908 471.837,225.007 473.079,225.861 C 474.32,226.716 475.763,227.143 477.406,227.143 C 479.246,227.143 480.732,226.603 481.867,225.522 C 483.002,224.442 483.818,222.983 484.319,221.144 C 484.694,222.187 485.189,223.087 485.805,223.845 C 486.422,224.603 487.115,225.228 487.883,225.721 C 488.65,226.214 489.468,226.575 490.335,226.801 C 491.201,227.029 492.08,227.143 492.974,227.143 C 494.403,227.143 495.676,226.915 496.792,226.459 C 497.909,226.003 498.856,225.338 499.633,224.463 C 500.409,223.586 501.004,222.51 501.414,221.232 C 501.825,219.954 502.031,218.494 502.031,216.85 L 502.031,199.562 L 497.262,199.562 L 497.262,216.849 C 497.262,218.975 496.797,220.587 495.867,221.687 C 494.939,222.785 493.59,223.335 491.821,223.335 C 491.035,223.335 490.29,223.196 489.584,222.92 C 488.879,222.643 488.257,222.237 487.722,221.7 C 487.186,221.165 486.762,220.49 486.449,219.677 C 486.137,218.863 485.98,217.921 485.98,216.849 L 485.98,199.562 L 481.211,199.562 L 481.211,216.849 C 481.211,219.029 480.773,220.654 479.898,221.727 C 479.022,222.799 477.745,223.335 476.066,223.335 C 474.887,223.335 473.792,222.989 472.783,222.299 C 471.774,221.608 470.85,220.669 470.01,219.482 L 470.01,199.562 L 465.24,199.562 Z" fill-rule="nonzero" stroke-linejoin="round" stroke-linecap="round" stroke="none" stroke-width="2.01" fill="#333333" marker-start="none" marker-end="none" stroke-miterlimit="79.8403193612775"/>
    <path d="M 524.769,222.241 C 524.555,221.848 524.224,221.653 523.777,221.653 C 523.51,221.653 523.206,221.752 522.867,221.948 C 522.527,222.144 522.112,222.363 521.62,222.605 C 521.13,222.845 520.545,223.07 519.865,223.275 C 519.186,223.482 518.383,223.585 517.453,223.584 C 516.65,223.585 515.927,223.482 515.284,223.275 C 514.641,223.07 514.091,222.788 513.636,222.431 C 513.18,222.074 512.832,221.658 512.591,221.184 C 512.349,220.711 512.229,220.197 512.229,219.642 C 512.229,218.945 512.43,218.364 512.832,217.899 C 513.234,217.434 513.765,217.033 514.426,216.692 C 515.087,216.354 515.837,216.054 516.677,215.795 C 517.516,215.536 518.379,215.259 519.262,214.963 C 520.147,214.668 521.009,214.342 521.849,213.985 C 522.688,213.628 523.438,213.181 524.099,212.645 C 524.76,212.108 525.292,211.451 525.694,210.673 C 526.095,209.895 526.297,208.962 526.297,207.871 C 526.297,206.62 526.074,205.462 525.627,204.399 C 525.18,203.337 524.519,202.415 523.644,201.637 C 522.768,200.86 521.696,200.248 520.428,199.801 C 519.159,199.354 517.695,199.131 516.034,199.131 C 514.14,199.131 512.425,199.434 510.89,200.041 C 509.353,200.647 508.049,201.426 506.977,202.376 L 508.103,204.234 C 508.245,204.471 508.415,204.654 508.611,204.781 C 508.807,204.908 509.067,204.972 509.389,204.972 C 509.71,204.972 510.05,204.847 510.407,204.597 C 510.764,204.347 511.198,204.07 511.706,203.765 C 512.216,203.461 512.832,203.184 513.555,202.935 C 514.279,202.684 515.185,202.559 516.275,202.559 C 517.204,202.559 518.017,202.679 518.713,202.921 C 519.41,203.162 519.99,203.488 520.455,203.899 C 520.919,204.31 521.263,204.783 521.487,205.32 C 521.71,205.855 521.822,206.428 521.822,207.035 C 521.822,207.786 521.62,208.407 521.219,208.899 C 520.817,209.391 520.285,209.81 519.624,210.16 C 518.963,210.507 518.208,210.812 517.36,211.07 C 516.511,211.33 515.646,211.602 514.761,211.889 C 513.877,212.174 513.01,212.5 512.162,212.867 C 511.313,213.233 510.558,213.694 509.897,214.248 C 509.236,214.802 508.705,215.486 508.303,216.298 C 507.901,217.112 507.701,218.099 507.701,219.26 C 507.701,220.297 507.915,221.293 508.344,222.25 C 508.773,223.206 509.398,224.047 510.22,224.77 C 511.041,225.494 512.05,226.07 513.247,226.499 C 514.444,226.928 515.81,227.143 517.347,227.143 C 519.132,227.143 520.736,226.861 522.157,226.299 C 523.577,225.735 524.805,224.962 525.841,223.979 L 524.769,222.241 Z" fill-rule="nonzero" stroke-linejoin="round" stroke-linecap="round" stroke="none" stroke-width="2.01" fill="#333333" marker-start="none" marker-end="none" stroke-miterlimit="79.8403193612775"/>
   </g>
   <g id="Layer 4">
    <path d="M 467.927,234.11 C 467.927,234.355 467.972,234.586 468.062,234.803 C 468.152,235.02 468.274,235.209 468.43,235.37 C 468.586,235.53 468.772,235.657 468.989,235.752 C 469.206,235.846 469.437,235.893 469.682,235.893 C 469.927,235.893 470.158,235.846 470.375,235.752 C 470.593,235.657 470.782,235.53 470.941,235.37 C 471.102,235.209 471.227,235.02 471.317,234.803 C 471.406,234.586 471.451,234.355 471.451,234.11 C 471.451,233.856 471.406,233.622 471.317,233.409 C 471.227,233.197 471.102,233.011 470.941,232.851 C 470.782,232.69 470.593,232.566 470.375,232.476 C 470.158,232.386 469.927,232.341 469.682,232.341 C 469.437,232.341 469.206,232.386 468.989,232.476 C 468.772,232.566 468.586,232.69 468.43,232.851 C 468.274,233.011 468.152,233.197 468.062,233.409 C 467.972,233.622 467.927,233.856 467.927,234.11 Z" fill-rule="nonzero" stroke-linejoin="round" stroke-linecap="round" stroke="none" stroke-width="1.063" fill="#333333" marker-start="none" marker-end="none" stroke-miterlimit="79.8403193612775"/>
    <path d="M 484.527,244.347 C 484.451,244.243 484.375,244.163 484.3,244.107 C 484.225,244.05 484.116,244.022 483.975,244.022 C 483.834,244.022 483.68,244.081 483.514,244.198 C 483.35,244.316 483.139,244.445 482.885,244.588 C 482.63,244.729 482.321,244.859 481.958,244.977 C 481.595,245.095 481.148,245.154 480.621,245.154 C 479.922,245.154 479.305,245.028 478.767,244.778 C 478.229,244.529 477.778,244.167 477.415,243.696 C 477.052,243.223 476.778,242.653 476.593,241.983 C 476.41,241.313 476.317,240.562 476.317,239.732 C 476.317,238.864 476.418,238.092 476.615,237.418 C 476.813,236.743 477.092,236.177 477.45,235.719 C 477.809,235.262 478.246,234.912 478.759,234.672 C 479.274,234.431 479.852,234.31 480.493,234.31 C 481.106,234.31 481.612,234.384 482.007,234.53 C 482.404,234.676 482.734,234.839 482.998,235.019 C 483.262,235.197 483.479,235.361 483.649,235.507 C 483.82,235.653 483.989,235.726 484.158,235.726 C 484.375,235.726 484.536,235.646 484.64,235.485 L 485.347,234.562 C 484.725,233.798 483.947,233.24 483.012,232.885 C 482.078,232.532 481.092,232.355 480.054,232.355 C 479.158,232.355 478.325,232.52 477.556,232.851 C 476.787,233.181 476.12,233.661 475.554,234.287 C 474.987,234.915 474.542,235.687 474.216,236.602 C 473.891,237.517 473.728,238.561 473.728,239.732 C 473.728,240.797 473.877,241.784 474.174,242.691 C 474.471,243.596 474.905,244.377 475.475,245.033 C 476.047,245.689 476.751,246.202 477.592,246.569 C 478.432,246.937 479.393,247.121 480.479,247.121 C 481.479,247.121 482.366,246.959 483.139,246.633 C 483.913,246.307 484.598,245.847 485.192,245.253 L 484.527,244.347 Z" fill-rule="nonzero" stroke-linejoin="round" stroke-linecap="round" stroke="none" stroke-width="1.063" fill="#333333" marker-start="none" marker-end="none" stroke-miterlimit="79.8403193612775"/>
    <path d="M 493.763,247.123 C 494.811,247.123 495.756,246.949 496.6,246.6 C 497.445,246.249 498.163,245.755 498.752,245.112 C 499.341,244.471 499.794,243.695 500.11,242.783 C 500.427,241.873 500.585,240.855 500.585,239.732 C 500.585,238.599 500.427,237.58 500.11,236.674 C 499.794,235.767 499.341,234.993 498.752,234.352 C 498.163,233.71 497.445,233.217 496.6,232.873 C 495.756,232.527 494.811,232.355 493.763,232.355 C 492.716,232.355 491.77,232.527 490.925,232.873 C 490.08,233.217 489.361,233.71 488.767,234.352 C 488.173,234.993 487.716,235.767 487.395,236.674 C 487.074,237.58 486.913,238.599 486.913,239.732 C 486.913,240.855 487.074,241.873 487.395,242.783 C 487.716,243.695 488.173,244.471 488.767,245.112 C 489.361,245.755 490.08,246.249 490.925,246.6 C 491.77,246.949 492.716,247.123 493.763,247.123 Z M 493.763,234.323 C 495.178,234.323 496.235,234.797 496.933,235.746 C 497.631,236.694 497.98,238.018 497.98,239.718 C 497.98,241.425 497.631,242.756 496.933,243.71 C 496.235,244.664 495.178,245.14 493.763,245.14 C 493.046,245.14 492.423,245.017 491.896,244.772 C 491.367,244.526 490.925,244.172 490.572,243.71 C 490.218,243.248 489.953,242.679 489.779,242.004 C 489.604,241.329 489.517,240.566 489.517,239.718 C 489.517,238.868 489.604,238.108 489.779,237.438 C 489.953,236.767 490.218,236.204 490.572,235.746 C 490.925,235.287 491.367,234.937 491.896,234.692 C 492.423,234.445 493.046,234.323 493.763,234.323 Z" fill-rule="nonzero" stroke-linejoin="round" stroke-linecap="round" stroke="none" stroke-width="1.063" fill="#333333" marker-start="none" marker-end="none" stroke-miterlimit="79.8403193612775"/>
    <path d="M 503.703,232.556 L 503.703,246.895 L 505.203,246.895 C 505.562,246.895 505.788,246.704 505.882,246.321 L 506.067,244.707 C 506.594,245.415 507.187,245.995 507.842,246.447 C 508.498,246.897 509.261,247.123 510.128,247.123 C 511.1,247.123 511.886,246.838 512.484,246.267 C 513.084,245.697 513.515,244.926 513.779,243.955 C 513.978,244.506 514.24,244.981 514.565,245.381 C 514.891,245.782 515.257,246.112 515.663,246.372 C 516.068,246.633 516.5,246.823 516.957,246.942 C 517.415,247.063 517.88,247.123 518.351,247.123 C 519.106,247.123 519.778,247.003 520.367,246.761 C 520.958,246.521 521.457,246.17 521.868,245.707 C 522.279,245.245 522.592,244.677 522.809,244.001 C 523.026,243.326 523.135,242.555 523.135,241.687 L 523.135,232.556 L 520.615,232.556 L 520.615,241.687 C 520.615,242.809 520.37,243.661 519.88,244.241 C 519.389,244.822 518.677,245.112 517.742,245.112 C 517.328,245.112 516.933,245.039 516.561,244.892 C 516.188,244.746 515.86,244.532 515.577,244.249 C 515.294,243.965 515.069,243.61 514.905,243.18 C 514.74,242.751 514.657,242.253 514.657,241.687 L 514.657,232.556 L 512.137,232.556 L 512.137,241.687 C 512.137,242.838 511.906,243.696 511.444,244.263 C 510.982,244.829 510.308,245.112 509.421,245.112 C 508.798,245.112 508.219,244.929 507.687,244.565 C 507.154,244.2 506.665,243.703 506.222,243.077 L 506.222,232.556 L 503.703,232.556 Z" fill-rule="nonzero" stroke-linejoin="round" stroke-linecap="round" stroke="none" stroke-width="1.063" fill="#333333" marker-start="none" marker-end="none" stroke-miterlimit="79.8403193612775"/>
   </g>
   <g id="Layer 5">
    <path d="M 106.186,181.142 C 103.588,182.317 101.041,183.712 98.736,185.387 C 94.952,188.136 91.631,191.307 88.913,195.128 C 78.283,210.057 78.255,229.443 88.904,244.362 C 92.101,248.84 96.288,252.569 100.964,255.439 C 104.745,257.759 109.187,259.483 113.524,260.404 C 118.798,261.526 124.029,261.592 129.335,260.656 C 134.11,259.816 138.425,258.092 142.605,255.677 L 143.109,255.342 C 143.049,255.289 142.99,255.237 142.929,255.185 C 142.492,255.415 142.049,255.636 141.605,255.842 C 138.278,257.391 134.829,258.561 131.201,259.162 C 117.582,261.423 104.367,256.862 95.322,246.931 L 91.734,242.38 L 88.088,235.543 C 87.086,233.129 86.331,230.617 85.901,228.106 C 85.39,225.111 85.167,222.364 85.285,219.324 C 85.683,209.018 90.516,199.06 98.275,192.323 L 101.742,189.662 C 112.759,182.215 125.757,181.134 137.987,186.231 C 139.963,187.055 141.806,188.137 143.607,189.285 C 145.6,190.552 147.446,192.067 149.131,193.742 L 153.686,199.141 L 156.712,204.364 C 157.582,206.177 158.306,208.062 158.879,210.035 C 162.304,221.852 159.591,234.3 152.193,243.569 C 153.418,245.19 154.656,246.801 155.913,248.399 C 155.923,248.412 155.935,248.426 155.945,248.44 C 158.107,245.886 159.934,243.085 161.559,240.05 C 164.019,235.459 165.954,228.757 166.168,223.545 C 166.25,221.494 166.327,219.599 166.189,217.537 C 165.667,209.782 163.011,202.127 158.513,195.775 C 154.554,190.189 149.252,185.408 143.126,182.305 C 131.617,176.476 118.025,175.794 106.186,181.142 Z M 121.283,194.442 C 119.26,194.647 117.538,194.99 115.589,195.576 C 113.588,196.18 111.74,197.122 109.949,198.181 C 109.465,198.469 108.791,198.887 108.36,199.247 C 108.044,199.511 107.685,199.748 107.357,200.008 C 106.358,200.805 105.37,201.733 104.51,202.677 C 101.075,206.447 99.037,210.818 98.185,215.832 C 97.267,221.23 98.326,226.844 100.932,231.612 C 102.129,230.64 103.247,229.629 104.298,228.561 L 104.281,228.526 C 103.752,227.202 103.36,225.831 103.18,224.413 C 102.975,222.804 102.844,221.333 102.969,219.707 C 103.392,214.137 105.883,209.149 110.07,205.609 L 111.886,204.245 L 113.971,203.039 C 119.017,200.494 124.838,200.13 130.209,202.271 C 131.662,202.847 132.832,203.534 134.136,204.38 C 135.138,205.028 136.035,205.808 136.856,206.664 L 139.068,209.334 L 140.544,211.925 C 143.032,217.088 143.185,222.667 140.963,227.889 C 142.031,229.493 143.118,231.078 144.225,232.639 C 144.639,233.226 145.057,233.812 145.474,234.398 C 146.131,233.339 146.706,232.196 147.212,231.102 C 150.081,224.894 150.102,217.874 147.894,211.475 C 147.095,209.167 145.809,206.889 144.369,204.926 C 139.153,197.81 130.128,193.538 121.283,194.442 Z M 109.628,240.712 C 110.083,240.986 110.549,241.249 111.033,241.508 C 114.861,243.56 119.053,244.273 123.354,244.104 C 125.756,244.006 128.192,243.41 130.461,242.488 C 130.247,242.234 130.034,241.979 129.824,241.724 C 129.03,241.915 128.254,242.055 127.549,242.128 C 126.213,242.264 125.056,242.329 123.713,242.303 C 119.793,242.222 116.054,240.967 112.811,238.889 C 111.749,239.569 110.691,240.168 109.628,240.712 Z" fill="#007d01" fill-rule="evenodd" stroke-width="0.987" stroke="none" marker-start="none" marker-end="none" stroke-miterlimit="79.8403193612775"/>
   </g>
   <g id="Layer 6">
    <path d="M 120.008,210.031 C 119.862,210.129 119.788,210.31 119.666,210.445 C 119.327,210.795 118.957,211.305 118.64,211.69 C 118.528,211.83 118.388,211.948 118.297,212.106 C 118.203,212.27 118.097,212.638 118.022,212.834 C 117.826,213.342 117.648,213.852 117.446,214.356 C 115.89,218.18 114.226,221.749 111.925,225.195 C 108.985,229.584 105.498,233.063 101.242,236.176 C 100.33,236.658 99.99,237.793 100.471,238.7 C 100.957,239.611 102.086,239.954 102.996,239.468 C 105.878,238.368 108.473,237.186 111.065,235.489 C 115.155,232.808 118.609,229.404 121.481,225.513 L 122.409,224.109 L 123.007,225.225 C 128.012,234.005 134.232,241.725 141.734,248.937 C 144.402,251.502 147.231,253.913 150.113,256.229 C 151.09,257.017 152.097,257.785 153.098,258.549 C 154.047,259.269 155.035,259.939 155.955,260.698 C 156.714,261.429 157.921,261.405 158.653,260.651 C 159.384,259.894 159.363,258.686 158.606,257.954 C 158.012,257.303 157.486,256.573 156.931,255.885 C 155.567,254.199 154.256,252.456 152.919,250.749 C 148.833,245.551 144.938,240.234 141.121,234.839 C 137.657,229.952 134.372,224.833 131.332,219.667 C 130.282,217.889 129.268,216.093 128.274,214.285 C 127.88,213.574 127.395,212.777 127.063,212.049 C 126.878,211.647 126.485,211.445 126.252,211.092 C 126.22,211.039 125.199,209.921 125.164,209.9 L 124.129,209.623 C 124.073,209.6 122.578,209.207 122.571,209.207 C 122.442,209.229 120.064,209.991 120.008,210.031 Z" stroke="none" stroke-width="0.732" fill="#9abf00" fill-rule="evenodd" marker-start="none" marker-end="none" stroke-miterlimit="79.8403193612775"/>
   </g>
  </g>
 </g>
</svg>
